<svg width="24" height="24" viewBox="0 0 24 24" fill="none" xmlns="http://www.w3.org/2000/svg">
<path fill-rule="evenodd" clip-rule="evenodd" d="M8.92574 16.3901H14.3119C14.7178 16.3901 15.0545 16.0501 15.0545 15.6401C15.0545 15.2301 14.7178 14.9001 14.3119 14.9001H8.92574C8.5198 14.9001 8.18317 15.2301 8.18317 15.6401C8.18317 16.0501 8.5198 16.3901 8.92574 16.3901ZM12.2723 9.90012H8.92574C8.5198 9.90012 8.18317 10.2401 8.18317 10.6501C8.18317 11.0601 8.5198 11.3901 8.92574 11.3901H12.2723C12.6782 11.3901 13.0149 11.0601 13.0149 10.6501C13.0149 10.2401 12.6782 9.90012 12.2723 9.90012ZM19.3381 9.02573C19.5708 9.02305 19.8242 9.02012 20.0545 9.02012C20.302 9.02012 20.5 9.22012 20.5 9.47012V17.5101C20.5 19.9901 18.5099 22.0001 16.0545 22.0001H8.17327C5.59901 22.0001 3.5 19.8901 3.5 17.2901V6.51012C3.5 4.03012 5.5 2.00012 7.96535 2.00012H13.2525C13.5099 2.00012 13.7079 2.21012 13.7079 2.46012V5.68012C13.7079 7.51012 15.203 9.01012 17.0149 9.02012C17.4381 9.02012 17.8112 9.02329 18.1377 9.02605C18.3917 9.02821 18.6175 9.03012 18.8168 9.03012C18.9578 9.03012 19.1405 9.02801 19.3381 9.02573ZM19.6111 7.56612C18.7972 7.56912 17.8378 7.56612 17.1477 7.55912C16.0527 7.55912 15.1507 6.64812 15.1507 5.54212V2.90612C15.1507 2.47512 15.6685 2.26112 15.9646 2.57212C16.5004 3.13488 17.2368 3.90846 17.9699 4.6785C18.7009 5.44645 19.4286 6.21087 19.9507 6.75912C20.2398 7.06212 20.0279 7.56512 19.6111 7.56612Z" fill="#ffeb93"/>
</svg>
